<svg width="32" height="30" viewBox="0 0 32 30" fill="none" xmlns="http://www.w3.org/2000/svg">
<path fill-rule="evenodd" clip-rule="evenodd" d="M21.0923 0C20.2687 4.91089 17.8782 7.36634 13.9008 7.36634H5.58443C5.58443 3.74257 7.91463 1.28713 12.575 0H21.0923ZM26.3151 13.4653H24.3063V19.6832L24.2662 19.8614H26.3352C27.1983 19.8745 28.0313 19.5491 28.651 18.9568C29.2707 18.3645 29.6264 17.5538 29.6397 16.703C29.653 15.8522 29.3229 15.031 28.722 14.4201C28.1212 13.8092 27.2987 13.4587 26.4357 13.4455H26.3352L26.3151 13.4653ZM26.3151 11.0495C27.8228 11.0495 29.2688 11.6399 30.3349 12.6909C31.4011 13.7418 32 15.1672 32 16.6535C32 18.1397 31.4011 19.5651 30.3349 20.6161C29.2688 21.667 27.8228 22.2574 26.3151 22.2574H23.6033C21.7753 27.4059 17.9184 30 12.0326 30C5.3032 30 1.30571 26.5347 0.0401758 19.604L0 19.4059V11.0297H26.3352L26.3151 11.0495Z" fill="white"/>
</svg>
