<svg width="32" height="18" viewBox="0 0 32 18" fill="none" xmlns="http://www.w3.org/2000/svg">
<path d="M22.9066 0.00153825C21.6278 0.000675846 20.3633 0.267428 19.1959 0.784305C18.0285 1.30118 16.9846 2.05651 16.1327 3.00077C16.1161 3.01965 16.0956 3.0348 16.0726 3.04517C16.0496 3.05555 16.0246 3.06092 15.9993 3.06092C15.974 3.06092 15.949 3.05555 15.926 3.04517C15.903 3.0348 15.8825 3.01965 15.8659 3.00077C14.6388 1.64203 13.0238 0.684238 11.2348 0.254138C9.44571 -0.175962 7.56692 -0.0580898 5.84702 0.592155C4.12713 1.2424 2.64721 2.39436 1.60312 3.89559C0.559035 5.39682 0 7.17655 0 8.99923C0 10.8219 0.559035 12.6016 1.60312 14.1029C2.64721 15.6041 4.12713 16.7561 5.84702 17.4063C7.56692 18.0566 9.44571 18.1744 11.2348 17.7443C13.0238 17.3142 14.6388 16.3564 15.8659 14.9977C15.8825 14.9788 15.903 14.9637 15.926 14.9533C15.949 14.9429 15.974 14.9375 15.9993 14.9375C16.0246 14.9375 16.0496 14.9429 16.0726 14.9533C16.0956 14.9637 16.1161 14.9788 16.1327 14.9977C17.1433 16.1171 18.4206 16.9685 19.8485 17.4741C21.2764 17.9798 22.8093 18.1238 24.3078 17.893C25.8062 17.6622 27.2225 17.0638 28.4276 16.1525C29.6328 15.2412 30.5885 14.0459 31.2077 12.6754C31.8269 11.3049 32.09 9.80277 31.9729 8.3059C31.8558 6.80902 31.3623 5.36494 30.5373 4.10517C29.7123 2.84541 28.5821 1.81 27.2496 1.09325C25.9171 0.376511 24.4247 0.0012113 22.9082 0.00153825M22.9082 13.6785C21.4548 13.6785 20.2402 12.9844 19.4941 12.2012C19.2568 11.9509 18.962 11.6084 18.6378 11.3166C18.4827 11.1794 18.3312 11.055 18.1833 10.9434C17.5462 10.4935 16.7819 10.2539 15.9993 10.2585C15.2177 10.2558 14.4547 10.4947 13.8168 10.9419C13.6594 11.0596 13.5077 11.1846 13.3623 11.3166C13.0366 11.6084 12.7434 11.9509 12.5061 12.2012C11.7615 12.9844 10.547 13.6785 9.09197 13.6785L8.98184 13.6755C8.91979 13.6744 8.85723 13.6719 8.79415 13.6678C8.75071 13.6657 8.70831 13.6627 8.66695 13.6586L8.59094 13.6524C7.4307 13.53 6.35722 12.9869 5.57713 12.1279C4.79705 11.2688 4.36551 10.1544 4.36557 8.99923V9.0192V8.97927V8.99923C4.36654 7.84434 4.79844 6.73051 5.57833 5.87166C6.35821 5.01281 7.4311 4.46949 8.59094 4.34605L8.67005 4.33837L8.79415 4.32915L8.98184 4.32301L9.09042 4.31994C10.5454 4.31994 11.76 5.01408 12.5061 5.79729C12.7434 6.04761 13.0381 6.39007 13.3608 6.68032C13.5159 6.81955 13.6679 6.94446 13.8168 7.05503C14.4249 7.48503 15.1787 7.73995 15.9978 7.73995C16.8168 7.73995 17.5706 7.48503 18.1787 7.05503C18.3355 6.93592 18.4876 6.81093 18.6347 6.68032C18.9589 6.39007 19.2521 6.04761 19.4894 5.79729C19.9293 5.33611 20.4587 4.96756 21.0459 4.71371C21.6331 4.45986 22.266 4.32593 22.9066 4.31994L23.0152 4.32301L23.2045 4.32915L23.3239 4.33837L23.4077 4.34605C24.5198 4.46463 25.5535 4.96949 26.3253 5.77102C27.0972 6.57255 27.5572 7.61889 27.6237 8.72434L27.6253 8.76888L27.6299 8.89634V9.08677C27.6299 9.13489 27.6284 9.183 27.6253 9.23112V9.26184C27.5612 10.3694 27.102 11.4185 26.3297 12.2223C25.5573 13.026 24.5218 13.5323 23.4077 13.6509L23.3224 13.657C23.2196 13.6647 23.1167 13.6698 23.0137 13.6724L22.9051 13.677L22.9082 13.6785Z" fill="white"/>
</svg>
